<?xml version="1.0" encoding="UTF-8" standalone="no"?>
<svg width="60px" height="60px" viewBox="0 0 60 60" version="1.1" xmlns="http://www.w3.org/2000/svg" xmlns:xlink="http://www.w3.org/1999/xlink">
    <!-- Generator: Sketch 39.1 (31720) - http://www.bohemiancoding.com/sketch -->
    <title>presentation-line</title>
    <desc>Created with Sketch.</desc>
    <defs></defs>
    <g id="Business" stroke="none" stroke-width="1" fill="none" fill-rule="evenodd">
        <g id="canvas" transform="translate(-181.000000, -180.000000)" fill-opacity="0" fill="#FFFFFF">
            <rect x="0" y="0" width="660" height="660"></rect>
        </g>
        <g id="presentation-line">
            <g id="fill" transform="translate(1.000000, 3.000000)">
                <path d="M56,4 L56,38 C56,40.21 54.21,42 52,42 L29,42 L6,42 C3.79,42 2,40.21 2,38 L2,4 L56,4 Z M58,0 L58,4 L56,4 L2,4 L0,4 L0,0 L29,0 L58,0 Z" id="Combined-Shape" fill="#E4F2DE"></path>
                <path d="M22,19 C23.66,19 25,20.34 25,22 C25,22.83 24.66,23.58 24.12,24.12 C23.58,24.66 22.83,25 22,25 C21.17,25 20.42,24.66 19.88,24.12 C19.34,23.58 19,22.83 19,22 C19,20.34 20.34,19 22,19 Z M43,14 C44.66,14 46,15.34 46,17 C46,18.66 44.66,20 43,20 C42.17,20 41.42,19.66 40.88,19.12 C40.34,18.58 40,17.83 40,17 C40,15.34 41.34,14 43,14 Z" id="Combined-Shape" fill="#459102"></path>
            </g>
            <path d="M25.125,27.125 L31,33 L41.883,22.117 M13,35 L20.875,27.125 L13,35 L13,35 L13,35 L13,35 Z M47,20 C47,18.343 45.656,17 44,17 C42.344,17 41,18.343 41,20 C41,21.657 42.344,23 44,23 C45.656,23 47,21.657 47,20 L47,20 L47,20 L47,20 L47,20 Z M26,25 C26,23.343 24.657,22 23,22 C21.343,22 20,23.343 20,25 C20,26.657 21.343,28 23,28 C24.657,28 26,26.657 26,25 L26,25 L26,25 L26,25 L26,25 Z M30,1 L30,3 L30,1 L30,1 L30,1 L30,1 Z M33,55 L37,59 L33,55 L33,55 L33,55 L33,55 Z M23,59 L30,52 L30,49 M53,7 L1,7 L1,3 L59,3 L59,7 L57,7 L57,41 C57,43.209 55.209,45 53,45 L7,45 C4.791,45 3,43.209 3,41 L3,11" id="stroke" stroke="#51565F" stroke-linecap="round" stroke-linejoin="round"></path>
        </g>
    </g>
</svg>