<?xml version="1.0" encoding="UTF-8" standalone="no"?>
<svg width="60px" height="60px" viewBox="0 0 60 60" version="1.1" xmlns="http://www.w3.org/2000/svg" xmlns:xlink="http://www.w3.org/1999/xlink">
    <!-- Generator: Sketch 39.1 (31720) - http://www.bohemiancoding.com/sketch -->
    <title>team-work</title>
    <desc>Created with Sketch.</desc>
    <defs></defs>
    <g id="Business" stroke="none" stroke-width="1" fill="none" fill-rule="evenodd">
        <g id="canvas" transform="translate(-421.000000, -420.000000)" fill-opacity="0" fill="#FFFFFF">
            <rect x="0" y="0" width="660" height="660"></rect>
        </g>
        <g id="team-work">
            <g id="fill" transform="translate(1.000000, 1.000000)">
                <path d="M58,38 L58,54 L54,54 L54,43 C54,41.21 53.91,39.52 53.79,38.02 L54,38 L58,38 Z M4.21,19.98 L4,20 L0,20 L0,4 L4,4 L4,15 C4,16.79 4.09,18.48 4.21,19.98 Z M38,49 L38,54 L26,54 L26,53 L26,40 L26,38 L36,38 L36.15,38.1 L34,41.5 C33.25,42.59 33.12,47 34.53,47.97 C35.94,48.94 38,49 38,49 Z M20,26 L20,36 L19.9,36.15 L16.5,34 C15.41,33.25 11,33.34 10.03,34.53 C9.06,35.72 9,38 9,38 L4,38 L4,26 L5,26 L18,26 L20,26 Z M20,54 L20,58 L4,58 L4,54 L15,54 C16.79,54 18.48,53.91 19.98,53.79 L20,54 Z M54,20 L54,32 L53,32 L40,32 L38,32 L38,22 L38.1,21.85 L41.5,24 C42.59,24.75 47,24.84 47.97,23.47 C48.94,22.09 49,20 49,20 L54,20 Z M32,5 L32,18 L32,20 L22,20 L21.85,19.9 L24,16.5 C24.75,15.41 24.84,11 23.47,10.03 C22.09,9.06 20,9 20,9 L20,4 L32,4 L32,5 Z M54,0 L54,4 L43,4 C41.21,4 39.52,4.09 38.02,4.21 L38,4 L38,0 L54,0 Z" id="Combined-Shape" fill="#459102"></path>
                <path d="M49,20 C49,20 48.94,22.09 47.97,23.47 C47,24.84 42.59,24.75 41.5,24 L38.1,21.85 L32,18 L32,5 C32,5 34.47,4.51 38.02,4.21 C39.52,4.09 41.21,4 43,4 L54,4 C55.1,4 56,4.9 56,6 C56,7.1 55.1,8 54,8 L55,8 C56.1,8 57,8.9 57,10 C57,11.1 56.1,12 55,12 L56,12 C57.1,12 58,12.9 58,14 C58,15.1 57.1,16 56,16 L55,16 C56.1,16 57,16.9 57,18 C57,19.1 56.1,20 55,20 L54,20 L49,20 Z M9,38 C9,38 9.06,35.72 10.03,34.53 C11,33.34 15.41,33.25 16.5,34 L19.9,36.15 L26,40 L26,53 C26,53 23.53,53.49 19.98,53.79 C18.48,53.91 16.79,54 15,54 L4,54 C2.9,54 2,53.1 2,52 C2,50.9 2.9,50 4,50 L3,50 C1.9,50 1,49.1 1,48 C1,46.9 1.9,46 3,46 L2,46 C0.9,46 0,45.1 0,44 C0,42.9 0.9,42 2,42 L3,42 C1.9,42 1,41.1 1,40 C1,38.9 1.9,38 3,38 L4,38 L9,38 Z M20,9 C20,9 22.09,9.06 23.47,10.03 C24.84,11 24.75,15.41 24,16.5 L21.85,19.9 L18,26 L5,26 C5,26 4.51,23.53 4.21,19.98 C4.09,18.48 4,16.79 4,15 L4,4 C4,2.9 4.9,2 6,2 C7.1,2 8,2.9 8,4 L8,3 C8,1.9 8.9,1 10,1 C11.1,1 12,1.9 12,3 L12,2 C12,0.9 12.9,0 14,0 C15.1,0 16,0.9 16,2 L16,3 C16,1.9 16.9,1 18,1 C19.1,1 20,1.9 20,3 L20,4 L20,9 Z M38,49 C38,49 35.94,48.94 34.53,47.97 C33.12,47 33.25,42.59 34,41.5 L36.15,38.1 L40,32 L53,32 C53,32 53.49,34.47 53.79,38.02 C53.91,39.52 54,41.21 54,43 L54,54 C54,55.1 53.1,56 52,56 C50.9,56 50,55.1 50,54 L50,55 C50,56.1 49.1,57 48,57 C46.9,57 46,56.1 46,55 L46,56 C46,57.1 45.1,58 44,58 C42.9,58 42,57.1 42,56 L42,55 C42,56.1 41.1,57 40,57 C38.9,57 38,56.1 38,55 L38,54 L38,49 Z" id="Combined-Shape" fill="#FFD0A1"></path>
            </g>
            <path d="M1,21 L5,21 M1,5 L5,5 M21,33 L21,27 L5,27 L5,35 M21,16 L21,4 C21,2.896 20.104,2 19,2 C17.896,2 17,2.896 17,4 L17,3 C17,1.896 16.104,1 15,1 C13.896,1 13,1.896 13,3 L13,4 C13,2.896 12.104,2 11,2 C9.896,2 9,2.896 9,4 L9,5 C9,3.896 8.104,3 7,3 C5.896,3 5,3.896 5,5 L5,16 C5,22 6,27 6,27 L19,27 L25,17.5 C25.75,16.406 25.859,12.422 24.469,11.031 M39,1 L39,5 M55,1 L55,5 M27,21 L33,21 L33,5 L25,5 M44,21 L56,21 C57.104,21 58,20.104 58,19 C58,17.896 57.104,17 56,17 L57,17 C58.104,17 59,16.104 59,15 C59,13.896 58.104,13 57,13 L56,13 C57.104,13 58,12.104 58,11 C58,9.896 57.104,9 56,9 L55,9 C56.104,9 57,8.104 57,7 C57,5.896 56.104,5 55,5 L44,5 C38,5 33,6 33,6 L33,19 L42.5,25 C43.594,25.75 47.578,25.859 48.969,24.469 M59,39 L55,39 M59,55 L55,55 M39,27 L39,33 L55,33 L55,25 M39,44 L39,56 C39,57.104 39.896,58 41,58 C42.104,58 43,57.104 43,56 L43,57 C43,58.104 43.896,59 45,59 C46.104,59 47,58.104 47,57 L47,56 C47,57.104 47.896,58 49,58 C50.104,58 51,57.104 51,56 L51,55 C51,56.104 51.896,57 53,57 C54.104,57 55,56.104 55,55 L55,44 C55,38 54,33 54,33 L41,33 L35,42.5 C34.25,43.594 34.141,47.578 35.531,48.969 M21,59 L21,55 M5,59 L5,55 M33,39 L27,39 L27,55 L35,55 M11.031,35.531 C12.422,34.141 16.406,34.25 17.5,35 L27,41 L27,54 C27,54 22,55 16,55 L5,55 C3.896,55 3,54.104 3,53 C3,51.896 3.896,51 5,51 L4,51 C2.896,51 2,50.104 2,49 C2,47.896 2.896,47 4,47 L3,47 C1.896,47 1,46.104 1,45 C1,43.896 1.896,43 3,43 L4,43 C2.896,43 2,42.104 2,41 C2,39.896 2.896,39 4,39 L16,39" id="strokе" stroke="#51565F" stroke-linecap="round" stroke-linejoin="round"></path>
        </g>
    </g>
</svg>